<?xml version="1.0" standalone="no"?><!DOCTYPE svg PUBLIC "-//W3C//DTD SVG 1.1//EN" "http://www.w3.org/Graphics/SVG/1.1/DTD/svg11.dtd"><svg t="1621301468822" class="icon" viewBox="0 0 1024 1024" version="1.1" xmlns="http://www.w3.org/2000/svg" p-id="3682" width="32" height="32" xmlns:xlink="http://www.w3.org/1999/xlink"><defs><style type="text/css"></style></defs><path d="M870.4 1024 665.6 1024C637.3376 1024 614.4 1001.0624 614.4 972.8 614.4 944.5376 637.3376 921.6 665.6 921.6L819.2 921.6C875.776 921.6 921.6 875.7248 921.6 819.2L921.6 665.6C921.6 637.3376 944.5376 614.4 972.8 614.4 1001.0624 614.4 1024 637.3376 1024 665.6L1024 870.4C1024 955.2384 955.2384 1024 870.4 1024L870.4 1024ZM972.8 409.6C944.5376 409.6 921.6 386.6624 921.6 358.4L921.6 204.8C921.6 148.224 875.776 102.4 819.2 102.4L665.6 102.4C637.3376 102.4 614.4 79.4624 614.4 51.2 614.4 22.9376 637.3376 0 665.6 0L870.4 0C955.2384 0 1024 68.7616 1024 153.6L1024 358.4C1024 386.6624 1001.0624 409.6 972.8 409.6L972.8 409.6ZM358.4 1024 153.6 1024C68.7616 1024 0 955.2384 0 870.4L0 665.6C0 637.3376 22.9376 614.4 51.2 614.4 79.4624 614.4 102.4 637.3376 102.4 665.6L102.4 819.2C102.4 875.7248 148.224 921.6 204.8 921.6L358.4 921.6C386.6624 921.6 409.6 944.5376 409.6 972.8 409.6 1001.0624 386.6624 1024 358.4 1024L358.4 1024ZM358.4 102.4 204.8 102.4C148.224 102.4 102.4 148.224 102.4 204.8L102.4 358.4C102.4 386.6624 79.4624 409.6 51.2 409.6 22.9376 409.6 0 386.6624 0 358.4L0 153.6C0 68.7616 68.7616 0 153.6 0L358.4 0C386.6624 0 409.6 22.9376 409.6 51.2 409.6 79.4624 386.6624 102.4 358.4 102.4L358.4 102.4Z" p-id="3683" fill="#707070"></path></svg>