<?xml version="1.0" standalone="no"?><!DOCTYPE svg PUBLIC "-//W3C//DTD SVG 1.1//EN" "http://www.w3.org/Graphics/SVG/1.1/DTD/svg11.dtd"><svg t="1621301370405" class="icon" viewBox="0 0 1024 1024" version="1.1" xmlns="http://www.w3.org/2000/svg" p-id="2799" xmlns:xlink="http://www.w3.org/1999/xlink" width="16" height="16"><defs><style type="text/css"></style></defs><path d="M505.600808 0c211.749267 0 383.951526 165.867059 383.951526 370.001287 0 67.447485-19.197576 133.551139-55.225028 191.143868l-301.849891 448.583367a31.803985 31.803985 0 0 1-52.985311 0L177.642213 562.361002A360.530483 360.530483 0 0 1 121.649282 370.001287C121.649282 165.867059 293.787549 0 505.600808 0z m0 192.615682c-100.27534 0-181.86504 78.966031-181.86504 175.977783 0 96.94776 81.589699 175.977783 181.86504 175.977783 100.211348 0 181.86504-79.030022 181.865039-175.977783 0-97.011752-81.653691-175.977783-181.865039-175.977783z" p-id="2800" fill="#d81e06"></path></svg>